<?xml version="1.0" encoding="UTF-8"?>
<svg width="32px" height="32px" viewBox="0 0 32 32" version="1.1" xmlns="http://www.w3.org/2000/svg" xmlns:xlink="http://www.w3.org/1999/xlink">
    <!-- Generator: Sketch 46.1 (44463) - http://www.bohemiancoding.com/sketch -->
    <title>Combined Shape</title>
    <desc>Created with Sketch.</desc>
    <defs></defs>
    <g id="Design" stroke="none" stroke-width="1" fill="none" fill-rule="evenodd">
        <g id="Features" transform="translate(-547.000000, -2660.000000)" fill="#FFFFFF">
            <g id="Section-2" transform="translate(0.000000, 2097.000000)">
                <g id="1" transform="translate(380.000000, 469.000000)">
                    <g id="Button" transform="translate(146.000000, 78.000000)">
                        <path d="M37,48 L37,48 C28.163444,48 21,40.836556 21,32 L21,32 L21,32 C21,23.163444 28.163444,16 37,16 L37.3555556,16 C45.9957436,16 53,23.0042564 53,31.6444444 L53,31.6444444 L53,48 L37,48 Z M37,45 L50,45 L50,31.7111111 L50,31.7111111 C50,24.6909583 44.3090417,19 37.2888889,19 L37,19 C29.8202983,19 24,24.8202983 24,32 L24,32 L24,32 C24,39.1797017 29.8202983,45 37,45 L37,45 Z M36.9789879,39.6685416 C34.2038161,39.6685416 31.5824193,38.6233782 29.5501165,36.7657602 C28.8906457,36.1629736 28.831345,35.1246972 29.4176646,34.446705 C30.0039842,33.7687128 31.0138969,33.7077465 31.6733678,34.3105331 C33.1261867,35.6384763 34.9941777,36.3832532 36.9789879,36.3832532 C38.991046,36.3832532 40.8828169,35.6177359 42.3429588,34.256672 C42.9966836,33.6473058 44.0071263,33.6981493 44.5998458,34.3702341 C45.1925653,35.0423189 45.1431108,36.0811401 44.4893861,36.6905064 C42.446987,38.5943183 39.7923319,39.6685416 36.9789879,39.6685416 Z" id="Combined-Shape"></path>
                    </g>
                </g>
            </g>
        </g>
    </g>
</svg>