
<svg xmlns="http://www.w3.org/2000/svg" viewBox="0 0 366.5 126.3" width="115.1px" height="40px"><style>.a{fill:#fff}</style><path d="M57.6 46.5c0-2.9 0.8-5.6 2.4-7.9 1.6-2.3 3.6-4.3 6-5.9 2.4-1.6 5.1-2.8 8.1-3.6 2.9-0.8 5.8-1.2 8.4-1.2 1.8 0 3.5 0.2 5.2 0.6 1.7 0.4 2.5 1.1 2.5 2.1 0 0.6-0.6 1.6-1.9 3C87 34.8 84.9 36 82 37.1c-0.5 0.3-1.3 0.7-2.5 1.3 -1.2 0.6-2.3 1.4-3.5 2.2 -1.2 0.8-2.2 1.8-3.1 2.8 -0.9 1-1.3 2-1.3 2.9 0 1.7 1.8 3.2 5.4 4.6C80.6 52.3 84.9 53 90 53c3.7 0 7.6-0.4 11.5-1.3 4-0.9 7.6-2.1 10.8-3.7 3.3-1.6 6-3.6 8.1-6 2.1-2.4 3.2-5.2 3.2-8.3 0-2.8-0.8-5.2-2.3-7.1 -1.5-1.9-3.5-3.5-6-4.8 -2.4-1.3-5.1-2.3-8-3.1 -2.9-0.8-5.7-1.3-8.4-1.6 -2.7-0.3-5.1-0.5-7.1-0.6 -2-0.1-3.4-0.1-4-0.1 -4.9 0-10.1 0.5-15.6 1.4 -5.6 1-11.1 2.4-16.5 4.4 -5.4 2-10.7 4.4-15.6 7.4 -5 2.9-9.4 6.4-13.2 10.3 -3.8 3.9-6.8 8.3-9 13.1 -2.2 4.8-3.4 10.1-3.4 15.8 0 5.5 1.1 10.4 3.2 14.8 2.1 4.4 4.9 8.2 8.4 11.5 3.5 3.3 7.4 6.1 11.9 8.4 4.5 2.3 9.1 4.2 13.9 5.7 4.8 1.5 9.6 2.6 14.3 3.3 4.7 0.7 9.2 1.1 13.2 1.1 9.5 0 18.9-1.1 28.4-3.2 9.5-2.1 18.6-5.3 27.5-9.5 5.4-2.6 9.1-4.1 11.1-4.5 2-0.4 3.1-0.4 3.1 0.3 0 1.4-0.8 2.8-2.3 4 -1.5 1.3-3.8 2.9-6.7 4.8 -10.5 6.9-21.6 12.1-33.2 15.6 -11.6 3.5-23.2 5.3-34.8 5.3 -7.3 0-15.2-1.2-23.7-3.5 -8.5-2.3-16.4-5.8-23.6-10.5 -7.2-4.7-13.2-10.6-18-17.8C2.4 87.5 0 79 0 69.3 0 58.4 2.7 48.7 8.1 40s12.3-15.9 20.6-21.8c8.4-5.9 17.7-10.4 27.9-13.5C66.9 1.6 76.9 0 86.8 0c5.4 0 11.2 0.6 17.4 1.7 6.2 1.2 12 3.1 17.4 5.8 5.4 2.7 9.9 6.3 13.4 10.8 3.6 4.5 5.4 10 5.4 16.7 0 5.4-1.6 10.2-4.7 14.5 -3.1 4.3-7.1 7.9-12 10.8 -4.9 2.9-10.2 5.1-15.9 6.6 -5.8 1.5-11.3 2.3-16.5 2.3 -4.1 0-8.2-0.4-12.2-1.2 -4-0.8-7.7-2.2-10.8-4 -3.2-1.9-5.8-4.2-7.7-7C58.6 54 57.6 50.6 57.6 46.5z" class="a"/><path d="M146.5 33.4c0-3.1 0.8-5.2 2.5-6.4 1.7-1.2 3.5-1.8 5.4-1.6 1.9 0.1 3.6 0.8 5.1 2.1 1.5 1.3 2 2.9 1.6 5 -0.3 0.9-0.5 3.1-0.9 6.7 -0.3 3.6-0.7 7.9-1.2 13.1 -0.5 5.1-1 10.8-1.4 16.9 -0.4 6.1-0.9 12.2-1.2 18.2 1.5-3.3 3.2-6.6 5.1-9.7 1.9-3.1 3.3-5.4 4.3-6.8 1-1.3 2.5-2.3 4.4-3 1.9-0.7 3.8-1 5.6-1 1.8 0.1 3.2 0.5 4.3 1.3 1.1 0.8 1.3 2.1 0.7 3.9 -0.4 1.2-0.8 3.6-1.3 7.2 -0.5 3.6-0.9 7.4-1.2 11.2 -0.3 3.8-0.5 7.3-0.4 10.4 0.1 3.1 0.4 4.6 1.1 4.6 0.8 0 1.8-0.9 3-2.7 1.2-1.8 2.5-3.9 3.7-6.4 1.3-2.5 2.4-5.1 3.5-7.7 1-2.6 1.8-4.8 2.3-6.4 0.4-1.2 1-1.9 1.8-2.3 0.8-0.4 1.6-0.5 2.4-0.4 0.8 0.1 1.4 0.5 1.9 1.2 0.5 0.7 0.6 1.6 0.4 2.8 -0.4 1.8-1.2 4.3-2.5 7.6 -1.3 3.3-2.8 6.6-4.7 10 -1.9 3.4-4 6.4-6.3 9 -2.4 2.6-4.8 4.2-7.2 4.7 -2.7 0.5-4.9 0.3-6.5-0.8 -1.7-1-2.9-2.5-3.8-4.4 -0.9-1.9-1.5-4.2-1.8-6.7 -0.3-2.6-0.5-5.1-0.4-7.5 0.1-2.4 0.3-4.7 0.6-6.7 0.3-2 0.7-3.6 1.1-4.6 -0.6 0.3-1.5 1.7-2.7 4.3 -1.2 2.6-2.3 5.6-3.6 8.8 -1.2 3.3-2.3 6.5-3.4 9.7 -1 3.2-1.6 5.6-1.7 7.1 0 0.4-0.1 0.6-0.2 0.8v1.9c0 1.8-0.7 3.2-2.2 4.1 -1.5 1-3.1 1.5-4.8 1.5 -1.7 0.1-3.3-0.3-4.6-1.2 -1.3-0.8-1.9-2.2-1.6-4.1 0.3-3.2 0.6-7.3 1-12.4 0.4-5.1 0.8-10.5 1.2-16.2 0.4-5.8 0.8-11.6 1.2-17.6 0.4-6 0.7-11.5 1-16.6 0.3-5.1 0.5-9.6 0.7-13.3C146.4 37.4 146.5 34.8 146.5 33.4z" class="a"/><path d="M213.9 63.7c1.8 0.4 3.4 1.2 4.7 2.5 1.3 1.3 2.5 2.7 3.4 4.2 1-1.2 2.3-1.8 3.8-1.9 1.5-0.1 3 0.1 4.4 0.7 1.4 0.6 2.6 1.5 3.5 2.7 0.9 1.2 1.2 2.7 1 4.3 -0.5 2.3-1 5.2-1.4 8.6 -0.5 3.5-0.7 6.8-0.9 10 -0.1 3.2 0 6 0.3 8.3 0.3 2.3 1 3.5 2 3.5 0.8 0 1.7-1 2.8-3 1.1-2 2.2-4.3 3.3-7 1.1-2.7 2.1-5.4 3-8.1 0.9-2.7 1.5-4.7 1.7-6.1 0.4-1.3 1-2.1 1.9-2.6 0.9-0.4 1.8-0.6 2.6-0.4 0.8 0.2 1.5 0.7 2.1 1.4 0.6 0.8 0.7 1.7 0.3 2.9 -0.3 0.8-0.7 2.2-1.2 4.3 -0.6 2.1-1.3 4.4-2.2 7 -0.9 2.6-2 5.2-3.2 8 -1.2 2.8-2.6 5.2-4.2 7.3 -1.6 2.1-3.4 3.7-5.4 4.9 -2 1.2-4.1 1.4-6.4 0.8 -3.7-1-6.4-3.3-8.1-6.7 -1 3.1-2.4 5.9-4.2 8.4 -1.8 2.5-4.1 4.3-6.9 5.5 -2.7 0.9-5.1 1.1-7.1 0.6 -3.7-1-6.7-3.3-8.8-6.9 -2.2-3.6-3.6-7.7-4.4-12.5 -0.8-4.7-0.8-9.7-0.2-14.8 0.6-5.1 2-9.7 3.9-13.8 2-4.1 4.6-7.3 8-9.7C205.1 63.6 209.1 62.9 213.9 63.7zM218.9 83.1c-0.3-2.2-0.7-4.3-1.4-6.3 -0.7-2-1.8-3.2-3.2-3.5 -2-0.4-3.9 0.4-5.5 2.2 -1.6 1.9-2.9 4.3-3.9 7.4 -1 3.1-1.8 6.4-2.2 10.1 -0.5 3.6-0.6 7.1-0.4 10.4s0.7 6 1.5 8.4c0.8 2.3 2.1 3.6 3.7 3.8 1.7 0.3 3.2-0.6 4.7-2.7 1.5-2 2.8-4.7 3.8-7.9 1.1-3.2 1.9-6.8 2.5-10.7C219.2 90.5 219.3 86.7 218.9 83.1z" class="a"/><path d="M247.5 53.2c0-0.9 0-1.8 0.1-2.6 0.1-0.8 0.1-1.6 0.1-2.2 0-3.1 0.8-5.2 2.5-6.4 1.7-1.2 3.5-1.8 5.4-1.6 1.9 0.1 3.6 0.8 5.1 2.1 1.5 1.3 2 2.9 1.6 5l-1 5h4.6c2.4 0 4.2 0.4 5.3 1.2 1.1 0.8 1.6 1.7 1.6 2.7s-0.6 1.8-1.7 2.6c-1.2 0.8-2.8 1.2-4.8 1.2h-5.8c-0.5 4.6-1 9.7-1.3 15.3 -0.4 5.6-0.6 10.8-0.8 15.7 -0.1 4.9-0.1 9 0.2 12.3 0.3 3.3 0.8 4.9 1.7 4.9 0.8 0 1.8-1.2 3.2-3.5 1.3-2.3 2.7-5 4.1-8 1.4-3 2.7-6 3.8-8.8 1.2-2.9 1.9-4.8 2.3-5.9 0.3-1.2 0.8-1.9 1.7-2.3 0.9-0.4 1.8-0.5 2.6-0.3 0.8 0.2 1.5 0.6 2.1 1.3 0.6 0.7 0.7 1.6 0.3 2.8 -0.8 2.6-1.8 5.9-3.1 10 -1.3 4.1-2.9 8.1-4.8 11.9s-4.2 7.2-6.9 10c-2.7 2.8-5.9 4.2-9.6 4.2 -2.4 0-4.4-1-6-2.9s-2.7-4.4-3.5-7.6c-0.8-3.1-1.2-6.8-1.4-10.8 -0.2-4.1-0.2-8.3-0.1-12.7 0.1-4.4 0.4-8.7 0.8-13.2s0.7-8.5 1-12.2h-4.6c-2 0-3.6-0.4-4.7-1.2 -1.1-0.8-1.7-1.6-1.7-2.5 -0.1-0.9 0.4-1.7 1.4-2.5 1-0.8 2.7-1.2 5-1.2H247.5z" class="a"/><path d="M276.9 35.9c0-3.1 0.8-5.2 2.5-6.4 1.7-1.2 3.5-1.8 5.5-1.6 2 0.1 3.7 0.8 5.2 2.1 1.5 1.3 2 2.9 1.6 5 -0.3 1.5-0.7 4.5-1.2 9 -0.6 4.5-1.1 9.6-1.6 15.5 -0.5 5.8-1 11.9-1.3 18.1 -0.4 6.3-0.6 12.1-0.7 17.4 -0.1 5.3 0.1 9.7 0.6 13.1 0.4 3.4 1.3 5.1 2.6 5.1 0.8 0 1.8-1.4 3.2-4.2 1.3-2.8 2.7-6 4-9.6 1.3-3.6 2.6-7.1 3.7-10.5 1.2-3.4 1.9-5.6 2.3-6.6 0.3-1.2 0.8-1.9 1.7-2.3 0.9-0.4 1.8-0.5 2.6-0.3 0.8 0.2 1.5 0.6 2.1 1.3 0.6 0.7 0.7 1.6 0.3 2.8 -0.8 2.6-1.8 6.1-3.1 10.8 -1.3 4.6-2.9 9.2-4.8 13.6 -1.9 4.5-4.2 8.4-6.9 11.7 -2.7 3.3-5.9 5-9.6 5 -3.5 0-6-1.8-7.8-5.5 -1.7-3.6-2.9-8.3-3.6-13.9 -0.6-5.6-0.9-11.9-0.7-18.8 0.2-6.9 0.5-13.7 1.1-20.3 0.5-6.6 1-12.6 1.5-18C276.6 42.8 276.9 38.7 276.9 35.9z" class="a"/><path d="M325.2 49.9c0.3 1.4 0.1 2.7-0.5 3.9 -0.6 1.2-1.4 2.3-2.6 3.3 -1.2 1-2.5 1.8-4 2.4 -1.5 0.6-3.1 1.1-4.8 1.3 -3.2 0.4-6.3 0.1-9.4-1 -3.1-1-4.8-2.9-5.2-5.6 -0.5-2.8 0.4-5.2 2.6-7.2 2.2-2 5.2-3.3 8.9-3.9 3.7-0.6 7-0.4 10 0.9C323.2 45.3 324.9 47.2 325.2 49.9zM303.4 76.2c0-3.1 0.8-5.2 2.4-6.3 1.6-1.2 3.4-1.6 5.3-1.3 1.9 0.3 3.6 1.1 5 2.5 1.4 1.4 1.9 3.1 1.5 5.2 -0.5 2.3-1 5.2-1.4 8.6 -0.5 3.5-0.7 6.8-0.9 10 -0.1 3.2 0 6 0.3 8.3 0.3 2.3 1.1 3.5 2.2 3.5 0.8 0 1.7-1 2.8-3 1.1-2 2.1-4.3 3.2-7 1-2.7 2-5.4 2.9-8.1 0.9-2.7 1.5-4.7 1.7-6.1 0.4-1.3 1-2.1 1.9-2.6 0.9-0.4 1.8-0.6 2.6-0.4 0.8 0.2 1.5 0.7 2.1 1.4 0.6 0.8 0.7 1.7 0.3 2.9 -0.3 0.8-0.7 2.2-1.2 4.3 -0.6 2.1-1.3 4.4-2.2 7 -0.9 2.6-2 5.2-3.2 8 -1.2 2.8-2.6 5.2-4.2 7.3 -1.6 2.1-3.4 3.7-5.3 4.9 -1.9 1.2-4 1.4-6.3 0.8 -3.5-1-5.9-2.9-7.4-5.7 -1.5-2.8-2.3-6-2.6-9.6 -0.3-3.6-0.2-7.6 0.1-11.9C303.2 84.5 303.4 80.3 303.4 76.2z" class="a"/><path d="M345.8 111.2c-4.7 0-8.5-1.2-11.3-3.6 -2.8-2.4-4.8-5.4-5.9-9 -1.1-3.6-1.4-7.5-1-11.7 0.5-4.2 1.5-8.1 3.3-11.6 1.7-3.5 4-6.4 6.8-8.7 2.8-2.3 6.1-3.3 10-3.1 4.5 0.3 8.1 1.6 10.9 4 2.8 2.4 4.9 5.4 6.1 9 1.3 3.6 1.8 7.4 1.6 11.4 -0.2 4-1.1 7.8-2.8 11.2 -1.7 3.5-4 6.3-7 8.6C353.6 110 350 111.2 345.8 111.2zM348.3 102.5c1.4 0.1 2.6-0.5 3.5-2 0.9-1.5 1.5-3.4 1.9-5.8 0.4-2.4 0.5-5 0.5-7.8 -0.1-2.8-0.4-5.4-1-7.9 -0.6-2.4-1.4-4.5-2.4-6.1 -1-1.7-2.2-2.5-3.6-2.5 -1.3 0-2.4 0.8-3.3 2.3 -0.9 1.5-1.6 3.5-2 5.8 -0.5 2.3-0.7 4.8-0.7 7.6 0 2.8 0.3 5.3 0.8 7.7 0.5 2.4 1.3 4.4 2.3 6C345.3 101.5 346.6 102.4 348.3 102.5z" class="a"/></svg>