<?xml version="1.0" encoding="UTF-8"?>
<svg width="272px" height="409px" viewBox="0 0 272 409" version="1.1" xmlns="http://www.w3.org/2000/svg" xmlns:xlink="http://www.w3.org/1999/xlink">
    <!-- Generator: Sketch 45.2 (43514) - http://www.bohemiancoding.com/sketch -->
    <title>Combined Shape</title>
    <desc>Created with Sketch.</desc>
    <defs></defs>
    <g id="Design" stroke="none" stroke-width="1" fill="none" fill-rule="evenodd" opacity="0.100000001">
        <g id="Login" transform="translate(-1219.000000, -220.000000)" fill="#000000">
            <path d="M1389,353 C1371.32689,353 1357,338.673112 1357,321 L1357,321 C1357,303.326888 1371.32689,289 1389,289 L1389.71111,289 C1406.99149,289 1421,303.008513 1421,320.288889 L1421,320.288889 L1421,353 L1389,353 Z M1389,565 L1421,565 L1421,597.711111 C1421,614.991487 1406.99149,629 1389.71111,629 L1389,629 C1371.32689,629 1357,614.673112 1357,597 L1357,597 L1357,597 C1357,579.326888 1371.32689,565 1389,565 Z M1389,358 L1421,358 L1421,390.711111 L1421,390.711111 C1421,407.991487 1406.99149,422 1389.71111,422 L1389,422 C1371.32689,422 1357,407.673112 1357,390 L1357,390 C1357,372.326888 1371.32689,358 1389,358 Z M1389,496 C1406.67311,496 1421,510.326888 1421,528 L1421,528 C1421,545.673112 1406.67311,560 1389,560 L1388.28889,560 C1371.00851,560 1357,545.991487 1357,528.711111 L1357,528.711111 L1357,496 L1389,496 Z M1320,422 L1320,422 C1302.32689,422 1288,407.673112 1288,390 L1288,390 C1288,372.326888 1302.32689,358 1320,358 L1320.71111,358 C1337.99149,358 1352,372.008513 1352,389.288889 L1352,389.288889 L1352,422 L1320,422 Z M1320,560 L1288,560 L1288,527.288889 L1288,527.288889 C1288,510.008513 1302.00851,496 1319.28889,496 L1320,496 C1337.67311,496 1352,510.326888 1352,528 L1352,528 C1352,545.673112 1337.67311,560 1320,560 L1320,560 Z M1320,284 L1320,284 C1302.32689,284 1288,269.673112 1288,252 L1288,252 L1288,252 C1288,234.326888 1302.32689,220 1320,220 L1320.71111,220 C1337.99149,220 1352,234.008513 1352,251.288889 L1352,251.288889 L1352,284 L1320,284 Z M1251,422 L1251,422 C1233.32689,422 1219,407.673112 1219,390 L1219,390 C1219,372.326888 1233.32689,358 1251,358 L1251.71111,358 C1268.99149,358 1283,372.008513 1283,389.288889 L1283,389.288889 L1283,422 L1251,422 Z M1251,560 L1251,560 C1233.32689,560 1219,545.673112 1219,528 L1219,528 C1219,510.326888 1233.32689,496 1251,496 L1251.71111,496 C1268.99149,496 1283,510.008513 1283,527.288889 L1283,527.288889 L1283,560 L1251,560 Z M1389,491 L1357,491 L1357,458.288889 L1357,458.288889 C1357,441.008513 1371.00851,427 1388.28889,427 L1389,427 C1406.67311,427 1421,441.326888 1421,459 L1421,459 C1421,476.673112 1406.67311,491 1389,491 Z M1459,423 L1427,423 L1427,390.288889 L1427,390.288889 C1427,373.008513 1441.00851,359 1458.28889,359 L1459,359 C1476.67311,359 1491,373.326888 1491,391 L1491,391 C1491,408.673112 1476.67311,423 1459,423 Z M1320,427 L1352,427 L1352,459.711111 L1352,459.711111 C1352,476.991487 1337.99149,491 1320.71111,491 L1320,491 C1302.32689,491 1288,476.673112 1288,459 L1288,459 C1288,441.326888 1302.32689,427 1320,427 L1320,427 Z M1320,289 L1320,289 C1337.67311,289 1352,303.326888 1352,321 L1352,321 C1352,338.673112 1337.67311,353 1320,353 L1319.28889,353 C1302.00851,353 1288,338.991487 1288,321.711111 L1288,321.711111 L1288,289 L1320,289 Z M1251,289 L1283,289 L1283,321.711111 L1283,321.711111 C1283,338.991487 1268.99149,353 1251.71111,353 L1251,353 C1233.32689,353 1219,338.673112 1219,321 L1219,321 C1219,303.326888 1233.32689,289 1251,289 L1251,289 Z" id="Combined-Shape"></path>
        </g>
    </g>
</svg>