<?xml version="1.0" encoding="UTF-8"?>
<svg width="20px" height="20px" viewBox="0 0 20 20" version="1.1" xmlns="http://www.w3.org/2000/svg" xmlns:xlink="http://www.w3.org/1999/xlink">
    <!-- Generator: Sketch 46.1 (44463) - http://www.bohemiancoding.com/sketch -->
    <title>Fill 1</title>
    <desc>Created with Sketch.</desc>
    <defs></defs>
    <g id="Design" stroke="none" stroke-width="1" fill="none" fill-rule="evenodd">
        <g id="Features" transform="translate(-380.000000, -6446.000000)" fill="#FFFFFF">
            <g id="Section-5" transform="translate(0.000000, 5649.000000)">
                <g id="Content" transform="translate(380.000000, 237.000000)">
                    <g id="li_3" transform="translate(0.000000, 548.000000)">
                        <path d="M12.5,22.00435 C12.49955,22.74745 12.36365,23.4588 12.11595,24.11555 C11.4594,24.3632 10.7477,24.49945 10.0043,24.5 L9.9957,24.5 C9.25265,24.49945 8.54115,24.3636 7.8846,24.116 C7.6369,23.45935 7.5005,22.74765 7.5,22.00435 L7.5,21.9957 C7.5005,21.2526 7.6366,20.5412 7.8839,19.88455 C8.5408,19.6368 9.25235,19.50045 9.9957,19.5 L10.0043,19.5 C10.7477,19.50045 11.4594,19.6368 12.11595,19.88455 C12.36365,20.5412 12.49955,21.2526 12.5,21.9957 L12.5,22.00435 Z M19.861,20.33335 L14.0237,20.33335 L18.1512,16.2058 C17.8268,15.75015 17.4651,15.3229 17.0706,14.92845 L17.0704,14.92825 C16.67625,14.5342 16.24935,14.1729 15.7942,13.8488 L11.66665,17.9763 L11.66665,12.13905 C11.12625,12.04835 10.57145,12.0003 10.0053,12 L9.99465,12 C9.42855,12.0003 8.87375,12.04835 8.33335,12.13905 L8.33335,17.97635 L4.2058,13.8488 C3.7504,14.17305 3.32335,14.53455 2.9291,14.9288 L2.92765,14.9302 C2.53385,15.32415 2.1728,15.75085 1.84885,16.2058 L5.9764,20.33335 L0.139,20.33335 C0.139,20.33335 0.0002,21.4297 0,21.99635 L0,22.0035 C0.0002,22.57025 0.0483,23.12575 0.13905,23.66665 L5.9763,23.66665 L1.84885,27.79415 C2.4975,28.705 3.29495,29.50255 4.20585,30.1512 L8.33335,26.02375 L8.33335,31.86095 C8.87315,31.9515 9.4274,31.9996 9.9929,32 L10.0072,32 C10.57265,31.9996 11.12685,31.9515 11.66665,31.861 L11.66665,26.02365 L15.79425,30.15115 C16.2495,29.827 16.6764,29.46565 17.0706,29.07155 L17.0716,29.0706 C17.46565,28.6764 17.827,28.24945 18.15115,27.79425 L14.02365,23.66665 L19.86095,23.66665 C19.9515,23.12685 19.9996,22.5726 20,22.0071 L20,21.9928 C19.9996,21.42735 19.9515,20.87315 19.861,20.33335 L19.861,20.33335 Z" id="Fill-1"></path>
                    </g>
                </g>
            </g>
        </g>
    </g>
</svg>