<?xml version="1.0" encoding="UTF-8"?>
<svg width="16px" height="20px" viewBox="0 0 16 20" version="1.1" xmlns="http://www.w3.org/2000/svg" xmlns:xlink="http://www.w3.org/1999/xlink">
    <!-- Generator: Sketch 45.2 (43514) - http://www.bohemiancoding.com/sketch -->
    <title>Combined Shape</title>
    <desc>Created with Sketch.</desc>
    <defs></defs>
    <g id="Design" stroke="none" stroke-width="1" fill="none" fill-rule="evenodd">
        <g id="Web-Final" transform="translate(-380.000000, -5198.000000)" fill-rule="nonzero" fill="#FFFFFF">
            <g id="Section-4" transform="translate(0.000000, 4503.000000)">
                <g id="Content" transform="translate(380.000000, 394.000000)">
                    <g id="li_1" transform="translate(0.000000, 301.000000)">
                        <path d="M12.459308,16.3943442 C10.8413348,18.3146248 8.80219097,20 8,20 C7.19780903,20 5.15866522,18.3146248 3.54069196,16.3943442 C1.34485538,13.7882304 0,10.9214408 0,8 C0,3.581722 3.581722,0 8,0 C12.418278,0 16,3.581722 16,8 C16,10.9214408 14.6551446,13.7882304 12.459308,16.3943442 Z M7.32443178,17.3541988 C7.62111233,17.5994086 8,17.8743758 8,17.8743758 C8,17.8743758 8.42137628,17.5642913 8.67556822,17.3541988 C9.41320699,16.7445321 10.2058991,15.9648564 10.9298369,15.1056558 C12.8493045,12.8275485 14,10.3746441 14,8 C14,4.6862915 11.3137085,2 8,2 C4.6862915,2 2,4.6862915 2,8 C2,10.3746441 3.15069545,12.8275485 5.07016314,15.1056558 C5.79410091,15.9648564 6.58679301,16.7445321 7.32443178,17.3541988 Z M5,8 C5,6.34314575 6.34314575,5 8,5 C9.65685425,5 11,6.34314575 11,8 C11,9.65685425 9.65685425,11 8,11 C6.34314575,11 5,9.65685425 5,8 Z M9,8 C9,7.44771525 8.55228475,7 8,7 C7.44771525,7 7,7.44771525 7,8 C7,8.55228475 7.44771525,9 8,9 C8.55228475,9 9,8.55228475 9,8 Z" id="Combined-Shape"></path>
                    </g>
                </g>
            </g>
        </g>
    </g>
</svg>