<?xml version="1.0" encoding="UTF-8"?>
<svg width="20px" height="20px" viewBox="0 0 20 20" version="1.1" xmlns="http://www.w3.org/2000/svg" xmlns:xlink="http://www.w3.org/1999/xlink">
    <!-- Generator: Sketch 46.1 (44463) - http://www.bohemiancoding.com/sketch -->
    <title>Combined Shape</title>
    <desc>Created with Sketch.</desc>
    <defs></defs>
    <g id="Design" stroke="none" stroke-width="1" fill="none" fill-rule="evenodd">
        <g id="Features" transform="translate(-380.000000, -6548.000000)" fill="#FFFFFF">
            <g id="Section-5" transform="translate(0.000000, 5649.000000)">
                <g id="Content" transform="translate(380.000000, 237.000000)">
                    <g id="li_4" transform="translate(0.000000, 650.000000)">
                        <path d="M10.9090909,29.2727273 L10.9090909,27 L9.09090909,27 L9.09090909,29.2727273 L10.9090909,29.2727273 Z M12.7272727,29.2727273 L14.5454545,29.2727273 L14.5454545,27.9101679 C14.5454545,27.4068437 14.1398559,27 13.640885,27 L12.7272727,27 L12.7272727,29.2727273 Z M7.27272727,29.2727273 L7.27272727,27 L6.35911501,27 C5.85960896,27 5.45454545,27.4064626 5.45454545,27.9101679 L5.45454545,29.2727273 L7.27272727,29.2727273 Z M16.3636364,29.2727273 L18.1806092,29.2727273 C18.1803223,29.2727273 18.1806223,29.2724615 18.1806223,29.2771916 L18.1806223,16.5409903 C18.1806223,16.544184 18.1820554,16.5454545 18.1806092,16.5454545 L1.81826517,16.5454545 C1.81855217,16.5454545 1.81825212,16.5457204 1.81825212,16.5409903 L1.81825212,29.2771916 C1.81825212,29.2739978 1.816819,29.2727273 1.81826517,29.2727273 L3.63636364,29.2727273 L3.63636364,27.9101679 C3.63636364,26.4037093 4.85404877,25.1818182 6.35911501,25.1818182 L13.640885,25.1818182 C15.1452595,25.1818182 16.3636364,26.4039349 16.3636364,27.9101679 L16.3636364,29.2727273 Z M8.18181818,14.7272727 L8.18181818,13.8181818 C8.18181818,12.8140277 8.98884513,12 10,12 C11.0041541,12 11.8181818,12.8070269 11.8181818,13.8181818 L11.8181818,14.7272727 L17.9999872,14.7272727 C19.1045638,14.7272727 20,15.538748 20,16.5409903 L20,29.2771916 C20,30.2788801 19.1017876,31.0909091 17.9999872,31.0909091 L2.00001277,31.0909091 C0.895436216,31.0909091 0,30.2794338 0,29.2771916 L0,16.5409903 C0,15.5393017 0.898212381,14.7272727 2.00001277,14.7272727 L8.18181818,14.7272727 Z M6.36363636,23.8181818 C4.85740523,23.8181818 3.63636364,22.5971402 3.63636364,21.0909091 C3.63636364,19.584678 4.85740523,18.3636364 6.36363636,18.3636364 C7.8698675,18.3636364 9.09090909,19.584678 9.09090909,21.0909091 C9.09090909,22.5971402 7.8698675,23.8181818 6.36363636,23.8181818 Z M13.6363636,23.8181818 C12.1301325,23.8181818 10.9090909,22.5971402 10.9090909,21.0909091 C10.9090909,19.584678 12.1301325,18.3636364 13.6363636,18.3636364 C15.1425948,18.3636364 16.3636364,19.584678 16.3636364,21.0909091 C16.3636364,22.5971402 15.1425948,23.8181818 13.6363636,23.8181818 Z M6.36363636,22 C6.86571341,22 7.27272727,21.5929861 7.27272727,21.0909091 C7.27272727,20.588832 6.86571341,20.1818182 6.36363636,20.1818182 C5.86155932,20.1818182 5.45454545,20.588832 5.45454545,21.0909091 C5.45454545,21.5929861 5.86155932,22 6.36363636,22 Z M13.6363636,22 C14.1384407,22 14.5454545,21.5929861 14.5454545,21.0909091 C14.5454545,20.588832 14.1384407,20.1818182 13.6363636,20.1818182 C13.1342866,20.1818182 12.7272727,20.588832 12.7272727,21.0909091 C12.7272727,21.5929861 13.1342866,22 13.6363636,22 Z" id="Combined-Shape"></path>
                    </g>
                </g>
            </g>
        </g>
    </g>
</svg>