<?xml version="1.0" encoding="UTF-8"?>
<svg width="20px" height="15px" viewBox="0 0 20 15" version="1.1" xmlns="http://www.w3.org/2000/svg" xmlns:xlink="http://www.w3.org/1999/xlink">
    <!-- Generator: Sketch 46.1 (44463) - http://www.bohemiancoding.com/sketch -->
    <title>Combined Shape</title>
    <desc>Created with Sketch.</desc>
    <defs></defs>
    <g id="Design" stroke="none" stroke-width="1" fill="none" fill-rule="evenodd">
        <g id="Features" transform="translate(-380.000000, -6309.000000)" fill-rule="nonzero" fill="#FFFFFF">
            <g id="Section-5" transform="translate(0.000000, 5649.000000)">
                <g id="Content" transform="translate(380.000000, 237.000000)">
                    <g id="li_2" transform="translate(0.000000, 408.000000)">
                        <path d="M3.63636364,23.6363636 C4.13844068,23.6363636 4.54545455,24.0433775 4.54545455,24.5454545 C4.54545455,25.0475316 4.13844068,25.4545455 3.63636364,25.4545455 C1.62523528,25.4545455 0,23.8289949 0,21.8187837 L0,18.6357618 C0,16.6269086 1.62823605,15 3.63941022,15 L10.9060443,15 C12.9162666,15 14.5454545,16.6263064 14.5454545,18.6357618 L14.5454545,21.8187837 C14.5454545,23.8280871 12.9204974,25.4545455 10.9091815,25.4545455 L9.09090909,25.4545455 C8.58883205,25.4545455 8.18181818,25.0475316 8.18181818,24.5454545 C8.18181818,24.0433775 8.58883205,23.6363636 9.09090909,23.6363636 L10.9091815,23.6363636 C11.9159673,23.6363636 12.7272727,22.8243086 12.7272727,21.8187837 L12.7272727,18.6357618 C12.7272727,17.6311817 11.9128323,16.8181818 10.9060443,16.8181818 L3.63941022,16.8181818 C2.63205834,16.8181818 1.81818182,17.6313948 1.81818182,18.6357618 L1.81818182,21.8187837 C1.81818182,22.8249197 2.62946834,23.6363636 3.63636364,23.6363636 Z M16.3654747,20.9090909 C15.8633976,20.9090909 15.4563838,20.502077 15.4563838,20 C15.4563838,19.497923 15.8633976,19.0909091 16.3654747,19.0909091 C18.3733621,19.0909091 20,20.7175802 20,22.7266709 L20,25.9096928 C20,27.9185459 18.3717639,29.5454545 16.3605898,29.5454545 L9.09395567,29.5454545 C7.0837334,29.5454545 5.45454545,27.9191482 5.45454545,25.9096928 L5.45454545,22.7266709 C5.45454545,20.7189898 7.08154507,19.0909091 9.0881775,19.0909091 L10.9090909,19.0909091 C11.411168,19.0909091 11.8181818,19.497923 11.8181818,20 C11.8181818,20.502077 11.411168,20.9090909 10.9090909,20.9090909 L9.0881775,20.9090909 C8.08596963,20.9090909 7.27272727,21.7228737 7.27272727,22.7266709 L7.27272727,25.9096928 C7.27272727,26.9142729 8.08716766,27.7272727 9.09395567,27.7272727 L16.3605898,27.7272727 C17.3679417,27.7272727 18.1818182,26.9140597 18.1818182,25.9096928 L18.1818182,22.7266709 C18.1818182,21.721726 17.3691997,20.9090909 16.3654747,20.9090909 Z" id="Combined-Shape"></path>
                    </g>
                </g>
            </g>
        </g>
    </g>
</svg>