<?xml version="1.0" encoding="UTF-8"?>
<svg width="20px" height="20px" viewBox="0 0 20 20" version="1.1" xmlns="http://www.w3.org/2000/svg" xmlns:xlink="http://www.w3.org/1999/xlink">
    <!-- Generator: Sketch 45.2 (43514) - http://www.bohemiancoding.com/sketch -->
    <title>Combined Shape</title>
    <desc>Created with Sketch.</desc>
    <defs></defs>
    <g id="Design" stroke="none" stroke-width="1" fill="none" fill-rule="evenodd">
        <g id="Web-Final" transform="translate(-380.000000, -5253.000000)" fill="#FFFFFF">
            <g id="Section-4" transform="translate(0.000000, 4503.000000)">
                <g id="Content" transform="translate(380.000000, 394.000000)">
                    <g id="li_2" transform="translate(0.000000, 356.000000)">
                        <path d="M15.6521739,7.70873617 C17.7207841,8.80220868 19.1304348,10.975614 19.1304348,13.4782609 C19.1304348,17.0801179 16.2105527,20 12.6086957,20 C10.3950886,20 8.43906419,18.8971577 7.26009686,17.2109476 L6.08965547,16.6257269 L4.73795892,17.2994069 C4.49318225,17.42187 4.20503242,17.4219403 3.96019598,17.2995968 L2.61116716,16.6254938 L1.2584466,17.2995019 C0.680271741,17.5885893 0,17.1681583 0,16.5217391 L0,1.73900316 C0,0.777802327 0.776727194,0 1.7398884,0 L13.9122855,0 C14.8734525,0 15.6521739,0.776476444 15.6521739,1.73900316 L15.6521739,7.70873617 Z M13.9150778,7.08739344 C13.9141234,4.24484129 13.9130619,1.73913043 13.9122855,1.73913043 C13.9122855,1.73913043 1.73913043,1.73775944 1.73913043,1.73900316 L1.73913043,15.1135254 L2.21981426,14.8744111 C2.46455399,14.7520413 2.75261766,14.7520061 2.99738724,14.8743163 L4.35653023,15.5526113 L5.69788517,14.8745061 C5.8610402,14.7928788 6.04346331,14.7656294 6.21948421,14.7927611 C6.13258988,14.3681675 6.08695652,13.9285433 6.08695652,13.4782609 C6.08695652,13.0315663 6.13186556,12.5953608 6.21741493,12.173913 L4.34820184,12.173913 C3.86774671,12.173913 3.47826087,11.7879436 3.47826087,11.3043478 C3.47826087,10.8241002 3.85806167,10.4347826 4.34820184,10.4347826 L6.83917095,10.4347826 C7.93264346,8.36617244 10.1060488,6.95652174 12.6086957,6.95652174 C13.056109,6.95652174 13.4929995,7.00157541 13.9150778,7.08739344 Z M3.47826087,7.82608696 C3.47826087,7.34583935 3.87726162,6.95652174 4.35597295,6.95652174 L6.07880966,6.95652174 C6.56355665,6.95652174 6.95652174,7.34249115 6.95652174,7.82608696 C6.95652174,8.30633457 6.55752099,8.69565217 6.07880966,8.69565217 L4.35597295,8.69565217 C3.87122595,8.69565217 3.47826087,8.30968276 3.47826087,7.82608696 Z M3.47826087,4.34782609 C3.47826087,3.86757848 3.87449078,3.47826087 4.34382397,3.47826087 L11.3083499,3.47826087 C11.7863872,3.47826087 12.173913,3.86423028 12.173913,4.34782609 C12.173913,4.8280737 11.7776831,5.2173913 11.3083499,5.2173913 L4.34382397,5.2173913 C3.86578667,5.2173913 3.47826087,4.83142189 3.47826087,4.34782609 Z M12.6086957,18.2608696 C15.2500575,18.2608696 17.3913043,16.1196227 17.3913043,13.4782609 C17.3913043,10.836899 15.2500575,8.69565217 12.6086957,8.69565217 C9.96733381,8.69565217 7.82608696,10.836899 7.82608696,13.4782609 C7.82608696,16.1196227 9.96733381,18.2608696 12.6086957,18.2608696 Z M11.1242174,16.2670118 L9.3852993,14.5278814 C9.04573369,14.1882743 9.0457673,13.6376961 9.38537437,13.2981305 C9.72498143,12.9585649 10.2755597,12.9585985 10.6151253,13.2982055 L11.7492908,14.4325095 L14.6025158,11.5590376 C14.9421022,11.2194512 15.4926804,11.2194512 15.8322668,11.5590376 C16.1718531,11.8986239 16.1718531,12.4492022 15.8322668,12.7887885 L12.3540059,16.2670494 C12.0144049,16.6066504 11.4637977,16.6066336 11.1242174,16.2670118 Z" id="Combined-Shape"></path>
                    </g>
                </g>
            </g>
        </g>
    </g>
</svg>