<?xml version="1.0" encoding="UTF-8"?>
<svg width="64px" height="65px" viewBox="0 0 64 65" version="1.1" xmlns="http://www.w3.org/2000/svg" xmlns:xlink="http://www.w3.org/1999/xlink">
    <!-- Generator: Sketch 46 (44423) - http://www.bohemiancoding.com/sketch -->
    <title>Group 3</title>
    <desc>Created with Sketch.</desc>
    <defs></defs>
    <g id="Design" stroke="none" stroke-width="1" fill="none" fill-rule="evenodd">
        <g id="Pricing" transform="translate(-876.000000, -449.000000)">
            <g id="Hero-Section">
                <g id="Price-2" transform="translate(680.000000, 448.000000)">
                    <g id="Group-3" transform="translate(196.000000, 0.000000)">
                        <path d="M32,65.4240073 L64,65.4240073 L64,32.7128962 L64,32.7128962 L64,32.7128962 C64,15.43252 49.9914873,1.4240073 32.7111111,1.4240073 L32,1.4240073 L32,1.4240073 C14.326888,1.4240073 2.164332e-15,15.7508953 0,33.4240073 L0,33.4240073 L0,33.4240073 C-2.164332e-15,51.0971193 14.326888,65.4240073 32,65.4240073 Z" id="Rectangle-Copy-9" fill="#E8A723"></path>
                        <path d="M41.1635364,35.4058043 C41.1635364,32.8294597 40.1242165,30.9508731 38.30694,29.4187484 C37.7791791,28.9737994 36.3571151,27.9846105 36.2437509,27.8832137 C34.5905944,26.4045732 33.9581553,25.0320098 34.571965,22.4807774 C34.808814,21.4963406 33.7931046,20.6803987 32.8828684,21.1238887 C28.9512364,23.0394787 27.3567386,27.0716137 27.6640251,30.6568612 C27.2033146,29.9933645 26.8871111,29.1279196 26.784129,28.111207 C26.6695202,26.9797066 25.1903099,26.6299685 24.5811091,27.5903343 C22.6558511,30.6253799 22,32.4513273 22,35.4058043 C22,40.7704258 26.3186562,45 31.5955373,45 C36.8676771,45 41.1635364,40.7733074 41.1635364,35.4058043 Z M24.395442,35.4058043 C24.395442,32.9665928 24.9015347,32.100594 25.2533326,31.2679978 C26.1682625,33.0409639 27.6652905,34.1991647 29.1797469,34.1991647 C29.943047,34.1991647 30.5115993,33.4947304 30.3504817,32.7486284 C29.3111738,27.9358108 31.155102,25.5039177 31.9575669,24.7216594 C32.0893607,26.7373964 33.0596554,28.249083 34.6467821,29.6686641 C34.8978333,29.893213 36.358736,30.9094181 36.7628969,31.2501615 C38.0789717,32.3597288 38.7680943,33.6053285 38.7680943,35.4058043 C38.7680943,39.4415599 35.5533361,42.604558 31.5955373,42.604558 C27.6305761,42.604558 24.395442,39.4361558 24.395442,35.4058043 Z" id="Path-957-Copy" fill="#FFFFFF" fill-rule="nonzero"></path>
                    </g>
                </g>
            </g>
        </g>
    </g>
</svg>