<?xml version="1.0" encoding="UTF-8"?>
<svg width="17px" height="14px" viewBox="0 0 17 14" version="1.1" xmlns="http://www.w3.org/2000/svg" xmlns:xlink="http://www.w3.org/1999/xlink">
    <!-- Generator: Sketch 45.2 (43514) - http://www.bohemiancoding.com/sketch -->
    <title>Twitter-black</title>
    <desc>Created with Sketch.</desc>
    <defs></defs>
    <g id="Symbols" stroke="none" stroke-width="1" fill="none" fill-rule="evenodd">
        <g id="footer" transform="translate(-1318.000000, -531.000000)" fill="#9BA7B2">
            <g id="4" transform="translate(1277.000000, 363.000000)">
                <g id="Social-Icon" transform="translate(0.000000, 167.000000)">
                    <path d="M57.3333333,2.65734922 C56.7454364,2.93846154 56.1124611,3.12856627 55.4484945,3.21350668 C56.1265481,2.77667028 56.6468275,2.08400144 56.8919411,1.25886602 C56.2570875,1.66334417 55.5555556,1.95760202 54.8061278,2.1153485 C54.2088396,1.42874684 53.3551682,1 52.4104009,1 C50.5988143,1 49.129072,2.58252077 49.129072,4.53412784 C49.129072,4.81119538 49.157246,5.08017335 49.2135939,5.33903936 C46.4854141,5.19140484 44.067148,3.78584326 42.4471445,1.64514265 C42.1644656,2.16894186 42.0029348,2.77667028 42.0029348,3.42383532 C42.0029348,4.64940412 42.5823795,5.73138317 43.4632858,6.36540267 C42.926102,6.34821235 42.4189705,6.18743229 41.9756999,5.92452149 L41.9756999,5.96800289 C41.9756999,7.68096786 43.1073546,9.10978693 44.6099665,9.43336945 C44.3348007,9.51628747 44.0446088,9.55774648 43.7450255,9.55774648 C43.5337207,9.55774648 43.3271116,9.53651138 43.1270764,9.49505237 C43.5449903,10.8985915 44.7564712,11.9209101 46.1933439,11.9482124 C45.0701415,12.8967136 43.6539297,13.4619718 42.1165698,13.4619718 C41.8517345,13.4619718 41.5897165,13.4457927 41.3333333,13.4134345 C42.7861713,14.4145179 44.5122968,15 46.3652051,15 C52.403827,15 55.7048776,9.61538462 55.7048776,4.94467317 C55.7048776,4.79097147 55.7020602,4.63726977 55.6964254,4.48660166 C56.3378529,3.98808234 56.8947585,3.36619718 57.3333333,2.65734922" id="Twitter"></path>
                </g>
            </g>
        </g>
    </g>
</svg>