<?xml version="1.0" encoding="UTF-8"?>
<svg width="20px" height="19px" viewBox="0 0 20 19" version="1.1" xmlns="http://www.w3.org/2000/svg" xmlns:xlink="http://www.w3.org/1999/xlink">
    <!-- Generator: Sketch 46.1 (44463) - http://www.bohemiancoding.com/sketch -->
    <title>Combined Shape</title>
    <desc>Created with Sketch.</desc>
    <defs></defs>
    <g id="Design" stroke="none" stroke-width="1" fill="none" fill-rule="evenodd">
        <g id="Features" transform="translate(-380.000000, -6131.000000)" fill-rule="nonzero" fill="#FFFFFF">
            <g id="Section-5" transform="translate(0.000000, 5649.000000)">
                <g id="Content" transform="translate(380.000000, 237.000000)">
                    <g id="li_1" transform="translate(0.000000, 232.000000)">
                        <path d="M0.267308821,21.4354758 L3.90367245,17.8108753 C4.25926923,17.4564288 4.834873,17.4573613 5.18931946,17.8129581 C5.54376592,18.1685549 5.54283342,18.7441586 5.18723664,19.0986051 L2.19328592,22.0911038 L5.1893161,25.085682 C5.54376443,25.4412769 5.54283493,26.0168807 5.18724001,26.371329 C4.8316451,26.7257773 4.25604132,26.7248478 3.901593,26.3692529 L0.265229364,22.7211261 C-0.0892202718,22.3655299 -0.0882892655,21.7899235 0.267308821,21.4354758 Z M19.7326912,21.4354758 C20.0882893,21.7899235 20.0892203,22.3655299 19.7347706,22.7211261 L16.098407,26.3692529 C15.7439587,26.7248478 15.1683549,26.7257773 14.81276,26.371329 C14.4571651,26.0168807 14.4562356,25.4412769 14.8106839,25.085682 L17.8067141,22.0911038 L14.8127634,19.0986051 C14.4571666,18.7441586 14.4562341,18.1685549 14.8106805,17.8129581 C15.165127,17.4573613 15.7407308,17.4564288 16.0963275,17.8108753 L19.7326912,21.4354758 Z M9.06926096,30.4701315 C8.96034516,30.9602526 8.47472979,31.2692806 7.98460868,31.1603648 C7.49448756,31.051449 7.1854596,30.5658336 7.2943754,30.0757125 L10.930739,13.7120761 C11.0396548,13.221955 11.5252702,12.9129271 12.0153913,13.0218429 C12.5055124,13.1307587 12.8145404,13.616374 12.7056246,14.1064951 L9.06926096,30.4701315 Z" id="Combined-Shape"></path>
                    </g>
                </g>
            </g>
        </g>
    </g>
</svg>