<?xml version="1.0" encoding="UTF-8"?>
<svg width="20px" height="20px" viewBox="0 0 20 20" version="1.1" xmlns="http://www.w3.org/2000/svg" xmlns:xlink="http://www.w3.org/1999/xlink">
    <!-- Generator: Sketch 46.1 (44463) - http://www.bohemiancoding.com/sketch -->
    <title>Combined Shape</title>
    <desc>Created with Sketch.</desc>
    <defs></defs>
    <g id="Design" stroke="none" stroke-width="1" fill="none" fill-rule="evenodd">
        <g id="Features" transform="translate(-380.000000, -9573.000000)" fill="#46C86D">
            <g id="Section-6" transform="translate(0.000000, 7878.000000)">
                <g id="Content" transform="translate(380.000000, 1178.000000)">
                    <path d="M20,535.862182 C20,536.96969 19.2795511,537.328584 18.4015962,536.671846 L13.5,533.005298 L2.00001277,533.005298 C0.895436216,533.005298 0,532.110488 0,531.002506 L0,519.002792 C0,517.89668 0.898212381,517 2.00001277,517 L17.9999872,517 C19.1045638,517 20,517.89481 20,519.002792 L20,535.862182 Z M18,519.002792 C18,519.000207 2.00001277,519.000662 2.00001277,519.000662 C2.00186746,519.000662 2,531.002506 2,531.002506 C2,531.005091 14.1650895,531.004635 14.1650895,531.004635 L18.0189792,533.887467 L18,519.002792 Z M7.48509259,524.002318 C6.65666546,524.002318 5.98509259,523.330522 5.98509259,522.501821 C5.98509259,521.67312 6.65666546,521.001324 7.48509259,521.001324 C8.31351971,521.001324 8.98509259,521.67312 8.98509259,522.501821 C8.98509259,523.330522 8.31351971,524.002318 7.48509259,524.002318 Z M12.4850926,524.002318 C11.6566655,524.002318 10.9850926,523.330522 10.9850926,522.501821 C10.9850926,521.67312 11.6566655,521.001324 12.4850926,521.001324 C13.3135197,521.001324 13.9850926,521.67312 13.9850926,522.501821 C13.9850926,523.330522 13.3135197,524.002318 12.4850926,524.002318 Z M9.98509259,529.003973 C8.24818982,529.003973 6.60753047,528.367494 5.33556874,527.236249 C4.92282431,526.869166 4.88570963,526.23688 5.25267078,525.823999 C5.61963193,525.411118 6.25170818,525.373991 6.66445261,525.741074 C7.57373154,526.54976 8.74285514,527.003311 9.98509259,527.003311 C11.2443837,527.003311 12.4283906,526.537129 13.3422527,525.708274 C13.7514009,525.337184 14.3838088,525.368147 14.7547755,525.77743 C15.1257421,526.186714 15.0947899,526.819331 14.6856418,527.190421 C13.4073611,528.349797 11.7458863,529.003973 9.98509259,529.003973 Z" id="Combined-Shape"></path>
                </g>
            </g>
        </g>
    </g>
</svg>