<?xml version="1.0" encoding="UTF-8"?>
<svg width="14px" height="14px" viewBox="0 0 14 14" version="1.1" xmlns="http://www.w3.org/2000/svg" xmlns:xlink="http://www.w3.org/1999/xlink">
    <!-- Generator: Sketch 45.2 (43514) - http://www.bohemiancoding.com/sketch -->
    <title>Facebook-black</title>
    <desc>Created with Sketch.</desc>
    <defs></defs>
    <g id="Symbols" stroke="none" stroke-width="1" fill="none" fill-rule="evenodd">
        <g id="footer" transform="translate(-1277.000000, -531.000000)" fill="#9BA7B2">
            <g id="4" transform="translate(1277.000000, 363.000000)">
                <g id="Social-Icon" transform="translate(0.000000, 167.000000)">
                    <path d="M7.47785361,15 L0.772692527,15 C0.345821191,15 0,14.6539642 0,14.2272591 L0,1.77268653 C0,1.34587283 0.345875515,1 0.772692527,1 L13.2273618,1 C13.6540702,1 14,1.34587283 14,1.77268653 L14,14.2272591 C14,14.6540185 13.6540158,15 13.2273618,15 L9.65979737,15 L9.65979737,9.57842844 L11.4795687,9.57842844 L11.7520536,7.46554581 L9.65979737,7.46554581 L9.65979737,6.11660374 C9.65979737,5.50487547 9.82966587,5.08800282 10.7068761,5.08800282 L11.8257158,5.08751392 L11.8257158,3.19773474 C11.6322167,3.17198577 10.9680619,3.11445799 10.1953693,3.11445799 C8.58224331,3.11445799 7.47785361,4.09911182 7.47785361,5.90735258 L7.47785361,7.46554581 L5.65341052,7.46554581 L5.65341052,9.57842844 L7.47785361,9.57842844 L7.47785361,15 L7.47785361,15 Z" id="Facebook"></path>
                </g>
            </g>
        </g>
    </g>
</svg>