<?xml version="1.0" encoding="UTF-8"?>
<svg width="30px" height="30px" viewBox="0 0 30 30" version="1.1" xmlns="http://www.w3.org/2000/svg" xmlns:xlink="http://www.w3.org/1999/xlink">
    <!-- Generator: Sketch 45.2 (43514) - http://www.bohemiancoding.com/sketch -->
    <title>Group</title>
    <desc>Created with Sketch.</desc>
    <defs></defs>
    <g id="Design" stroke="none" stroke-width="1" fill="none" fill-rule="evenodd">
        <g id="Sign-up" transform="translate(-540.000000, -410.000000)" fill-rule="nonzero">
            <g id="Sign_Up" transform="translate(440.000000, 220.000000)">
                <g id="Slack_Signup" transform="translate(80.000000, 175.000000)">
                    <g id="Group" transform="translate(20.000000, 15.000000)">
                        <path d="M2.51495639,15.9999201 C1.41249054,16.008322 0.478585177,15.3533782 0.134240182,14.3311538 C0.121465841,14.2925481 0.109556625,14.2536632 0.0985214118,14.2145282 C-0.276726339,12.9054408 0.450893097,11.5359401 1.75502953,11.0974439 L22.6725833,4.11131018 C22.9209511,4.03968167 23.1779805,4.00225996 23.4365235,4.00008577 C24.5682868,3.99128383 25.5278776,4.66063078 25.8806506,5.70445993 L25.9119547,5.80528206 C26.3032558,7.1687814 25.331023,8.38584858 24.1661496,8.77593422 C24.165347,8.77653435 23.9534423,8.84795003 3.36458152,15.8556884 C3.09091701,15.9486895 2.80407397,15.9973837 2.51495639,15.9999201 L2.51495639,15.9999201 Z" id="Shape" fill="#70CADB"></path>
                        <path d="M6.51865056,25.9996032 C5.41059208,26.00754 4.47603671,25.3670361 4.13663502,24.3675882 C4.12375157,24.3295684 4.11174133,24.2912632 4.10061361,24.2527022 C3.72118813,22.9387566 4.44601887,21.5660782 5.75099437,21.1305435 L26.6121914,14.1375825 C26.8817516,14.0482929 27.160117,14.002656 27.4400834,14.0000765 C28.5511436,13.9917428 29.5273238,14.6647878 29.8717284,15.6755458 L29.9037475,15.780709 C30.1052672,16.4793504 29.9861964,17.2645033 29.5855584,17.884173 C29.2869809,18.3449072 28.3452213,18.7504803 28.3452213,18.7504803 L7.40477715,25.8497951 C7.11918133,25.9456591 6.82014557,25.9963478 6.51865056,26 L6.51865056,25.9996032 L6.51865056,25.9996032 Z" id="Shape" fill="#E01765"></path>
                        <path d="M23.4824579,25.99988 C22.3809229,26.0106106 21.3978003,25.300742 21.0470961,24.2414146 L14.1334905,3.40915315 L14.0989125,3.29223122 C13.7243179,1.96375626 14.4446922,0.578029868 15.7358016,0.13654881 C15.9941427,0.0484541876 16.2612277,0.0024917761 16.5301011,7.27018108e-05 C16.9295362,-0.00295114105 17.3160543,0.0883689134 17.6801165,0.270807433 C18.2858165,0.574664309 18.74707,1.11098811 18.9616872,1.7609572 L25.8746966,22.5914043 L25.8947677,22.658332 C26.2830743,24.0376076 25.5642898,25.4241403 24.2731804,25.8656214 C24.0181508,25.9520518 23.751332,25.9973556 23.4824579,25.99988 L23.4824579,25.99988 Z" id="Shape" fill="#E8A723"></path>
                        <path d="M13.4761981,29.9998819 C12.3747143,30.010533 11.3917398,29.2999951 11.0413604,28.2398724 L4.13384878,7.40684389 C3.91768695,6.75772608 3.9647775,6.04798054 4.26473403,5.43415039 C4.56469056,4.82032023 5.09287095,4.35283301 5.73277853,4.13479879 C5.98802727,4.0481811 6.25507938,4.00273827 6.5242001,4.00012681 C7.62523409,3.9890925 8.60801666,4.69909575 8.95844206,5.75872505 L15.8661522,26.59256 C16.0824176,27.2419915 16.0351724,27.9520951 15.7348465,28.5661084 C15.4345205,29.1801218 14.9058108,29.6475522 14.2654351,29.8652099 C14.0106824,29.9518735 13.7440701,29.9972533 13.4754037,29.9996803 L13.4761981,29.9996803 L13.4761981,29.9998819 Z" id="Shape" fill="#3EB890"></path>
                        <polygon id="Shape" fill="#CC2027" points="20.7291408 21 26 19.4372566 24.2769431 15 19 16.546351 20.7291408 21"></polygon>
                        <polygon id="Shape" fill="#361238" points="9.73839479 26 15 24.1872092 13.2668113 19 8 20.7946476 9.73839479 26"></polygon>
                        <polygon id="Shape" fill="#65863A" points="16.7165702 11 22 9.42518537 20.29323 5 15 6.54819697"></polygon>
                        <polygon id="Shape" fill="#1A937D" points="6.73230349 15 12 13.1798462 10.2774676 8 5 9.78916968 6.73230349 15"></polygon>
                    </g>
                </g>
            </g>
        </g>
    </g>
</svg>