<?xml version="1.0" encoding="UTF-8"?>
<svg width="20px" height="20px" viewBox="0 0 20 20" version="1.1" xmlns="http://www.w3.org/2000/svg" xmlns:xlink="http://www.w3.org/1999/xlink">
    <!-- Generator: Sketch 46.1 (44463) - http://www.bohemiancoding.com/sketch -->
    <title>Combined Shape</title>
    <desc>Created with Sketch.</desc>
    <defs></defs>
    <g id="Design" stroke="none" stroke-width="1" fill="none" fill-rule="evenodd">
        <g id="Features" transform="translate(-380.000000, -9471.000000)" fill="#554FE8">
            <g id="Section-6" transform="translate(0.000000, 7878.000000)">
                <g id="Content" transform="translate(380.000000, 1178.000000)">
                    <path d="M15.5920934,419.000916 L15,419.000916 C14.4477153,419.000916 14,418.5532 14,418.000916 C14,417.448631 14.4477153,417.000916 15,417.000916 L17.9168316,417.000916 C18.457162,416.95922 19,417.367544 19,418 L19,421 C19,421.552285 18.5522847,422 18,422 C17.4477153,422 17,421.552285 17,421 L17,420.421143 L12.7071068,424.707107 C12.3165825,425.097631 11.6834175,425.097631 11.2928932,424.707107 L8.41554337,421.829757 L4.93998155,431.341729 C4.7512497,431.860766 4.17749021,432.12853 3.65845386,431.939798 C3.13941751,431.751067 2.87165281,431.177307 3.06038466,430.658271 L7.06020155,419.658271 C7.31021954,418.97069 8.1897691,418.775556 8.70710678,419.292893 L12.0112144,422.597001 L15.5920934,419.000916 Z M2,433 L19.0081969,433 C19.5559546,433 20,433.443865 20,434 C20,434.552285 19.5446944,435 19.0081969,435 L0.99180311,435 C0.719266549,435 0.472404547,434.890119 0.293136293,434.711199 C0.11082407,434.521943 0,434.275119 0,434.008197 L0,415.991803 C0,415.444045 0.443864822,415 1,415 C1.55228475,415 2,415.455306 2,415.991803 L2,433 Z" id="Combined-Shape"></path>
                </g>
            </g>
        </g>
    </g>
</svg>