<?xml version="1.0" encoding="UTF-8"?>
<svg width="16px" height="16px" viewBox="0 0 16 16" version="1.1" xmlns="http://www.w3.org/2000/svg" xmlns:xlink="http://www.w3.org/1999/xlink">
    <!-- Generator: Sketch 45.2 (43514) - http://www.bohemiancoding.com/sketch -->
    <title>Combined Shape</title>
    <desc>Created with Sketch.</desc>
    <defs></defs>
    <g id="Design" stroke="none" stroke-width="1" fill="none" fill-rule="evenodd">
        <g id="Web-Final" transform="translate(-952.000000, -6970.000000)" fill="#30323D">
            <g id="CTa" transform="translate(-15.000000, 6524.000000)">
                <g id="Content" transform="translate(715.000000, 422.000000)">
                    <g id="Icons" transform="translate(168.000000, 0.000000)">
                        <path d="M92.8888889,31.1111111 L92.8888889,24.8887588 C92.8888889,24.3955078 92.4909198,24 92,24 C91.5056576,24 91.1111111,24.3979109 91.1111111,24.8887588 L91.1111111,31.1111111 L84.8887588,31.1111111 C84.3955078,31.1111111 84,31.5090802 84,32 C84,32.4943424 84.3979109,32.8888889 84.8887588,32.8888889 L91.1111111,32.8888889 L91.1111111,39.1112412 C91.1111111,39.6044922 91.5090802,40 92,40 C92.4943424,40 92.8888889,39.6020891 92.8888889,39.1112412 L92.8888889,32.8888889 L99.1112412,32.8888889 C99.6044922,32.8888889 100,32.4909198 100,32 C100,31.5056576 99.6020891,31.1111111 99.1112412,31.1111111 L92.8888889,31.1111111 L92.8888889,31.1111111 Z" id="Combined-Shape"></path>
                    </g>
                </g>
            </g>
        </g>
    </g>
</svg>