<?xml version="1.0" encoding="UTF-8"?>
<svg width="20px" height="20px" viewBox="0 0 20 20" version="1.1" xmlns="http://www.w3.org/2000/svg" xmlns:xlink="http://www.w3.org/1999/xlink">
    <!-- Generator: Sketch 46.1 (44463) - http://www.bohemiancoding.com/sketch -->
    <title>Combined Shape</title>
    <desc>Created with Sketch.</desc>
    <defs></defs>
    <g id="Design" stroke="none" stroke-width="1" fill="none" fill-rule="evenodd">
        <g id="Features" transform="translate(-380.000000, -9523.000000)" fill="#0099FF">
            <g id="Section-6" transform="translate(0.000000, 7878.000000)">
                <g id="Content" transform="translate(380.000000, 1178.000000)">
                    <path d="M11,478.5 L12.0010434,478.5 C12.5527519,478.5 13,478.943865 13,479.5 C13,480.052285 12.5573397,480.5 12.0010434,480.5 L11,480.5 L11,481.5 L12.0010434,481.5 C12.5527519,481.5 13,481.943865 13,482.5 C13,483.052285 12.5573397,483.5 12.0010434,483.5 L10,483.5 C9.44771525,483.5 9,483.053301 9,482.504058 L9,476.829294 C7.83480763,476.417458 7,475.306219 7,474 C7,472.343146 8.34314575,471 10,471 C11.6568542,471 13,472.343146 13,474 C13,475.306219 12.1651924,476.417458 11,476.829294 L11,478.5 Z M20,477 C20,482.522847 15.5228475,487 10,487 C4.4771525,487 0,482.522847 0,477 C0,471.477153 4.4771525,467 10,467 C15.5228475,467 20,471.477153 20,477 Z M2,477 C2,481.418278 5.581722,485 10,485 C14.418278,485 18,481.418278 18,477 C18,472.581722 14.418278,469 10,469 C5.581722,469 2,472.581722 2,477 Z M11,474 C11,473.447715 10.5522847,473 10,473 C9.44771525,473 9,473.447715 9,474 C9,474.552285 9.44771525,475 10,475 C10.5522847,475 11,474.552285 11,474 Z" id="Combined-Shape"></path>
                </g>
            </g>
        </g>
    </g>
</svg>