<?xml version="1.0" encoding="UTF-8"?>
<svg width="100px" height="70px" viewBox="0 0 100 70" version="1.1" xmlns="http://www.w3.org/2000/svg" xmlns:xlink="http://www.w3.org/1999/xlink">
    <!-- Generator: Sketch 45.2 (43514) - http://www.bohemiancoding.com/sketch -->
    <title>“</title>
    <desc>Created with Sketch.</desc>
    <defs></defs>
    <g id="Design" stroke="none" stroke-width="1" fill="none" fill-rule="evenodd" opacity="0.100000001">
        <g id="Sign-up" transform="translate(-1040.000000, -750.000000)" fill="#FFFFFF">
            <g id="Quote" transform="translate(960.000000, 220.000000)">
                <path d="M126.440678,576.779661 C126.440678,565.932203 118.644068,556.779661 107.79661,554.40678 L112.542373,530 L100.677966,530 L83.0508475,565.932203 C81.0169492,568.983051 80,572.372881 80,576.779661 C80,589.322034 90.8474576,599.830508 103.050847,599.830508 C115.59322,599.830508 126.440678,589.322034 126.440678,576.779661 Z M180,576.779661 C180,565.932203 172.20339,556.779661 161.355932,554.40678 L166.440678,530 L154.237288,530 L136.610169,565.932203 C134.576271,569.661017 133.559322,573.050847 133.559322,576.779661 C133.559322,589.322034 144.40678,599.830508 156.610169,599.830508 C169.152542,599.830508 180,589.322034 180,576.779661 Z" id="“"></path>
            </g>
        </g>
    </g>
</svg>